<?xml version="1.0" encoding="UTF-8" standalone="no"?>
<svg
   xmlns:dc="http://purl.org/dc/elements/1.1/"
   xmlns:cc="http://creativecommons.org/ns#"
   xmlns:rdf="http://www.w3.org/1999/02/22-rdf-syntax-ns#"
   xmlns:svg="http://www.w3.org/2000/svg"
   xmlns="http://www.w3.org/2000/svg"
   viewBox="0 0 2000 1333.3333"
   height="1333.3333"
   width="2000"
   xml:space="preserve"
   id="svg2"
   version="1.1"><metadata
     id="metadata8"><rdf:RDF><cc:Work
         rdf:about=""><dc:format>image/svg+xml</dc:format><dc:type
           rdf:resource="http://purl.org/dc/dcmitype/StillImage" /></cc:Work></rdf:RDF></metadata><defs
     id="defs6"><clipPath
       id="clipPath18"
       clipPathUnits="userSpaceOnUse"><path
         id="path16"
         d="M 0,0 H 1500 V 1000 H 0 Z" /></clipPath><clipPath
       id="clipPath70"
       clipPathUnits="userSpaceOnUse"><path
         id="path68"
         d="M 461.207,779.108 C 439.289,757.287 299.443,567.03 299.443,550.768 v 0 c 0,-16.261 4.878,-118.036 0,-133.82 v 0 c -4.879,-15.783 161.764,-182.56 161.764,-182.56 v 0 l 35.97,62.796 65.937,-13.263 261.465,-43.971 150.469,48.71 38.125,-57.796 149.743,212.58 -164.53,335.664 -349.326,75.747 c 0,0 -165.936,-53.926 -187.853,-75.747" /></clipPath></defs><g
     transform="matrix(1.3333333,0,0,-1.3333333,0,1333.3333)"
     id="g10"><g
       id="g12"><g
         clip-path="url(#clipPath18)"
         id="g14"><g
           transform="translate(428.0597,214.4463)"
           id="g20"><path
             id="path22"
             style="fill:#1c2830;fill-opacity:1;fill-rule:nonzero;stroke:none"
             d="m 0,0 -0.076,0.068 c 0,0 0,0.004 -0.004,0.004 -0.647,0.595 -1.069,1.427 -1.069,2.379 0,0.113 0.056,0.217 0.072,0.33 0.004,0.068 0.004,0.133 0.016,0.201 0.016,0.1 0.052,0.197 0.081,0.297 0.068,0.249 0.148,0.478 0.269,0.696 0.024,0.044 0.028,0.096 0.052,0.132 L 16.357,32.476 H -86.112 l 51.57,-49.898 c 0.776,-0.747 1.125,-1.836 0.936,-2.897 -0.192,-1.057 -0.9,-1.958 -1.884,-2.392 l -106.19,-46.59 H 75.225 L 61.89,-57.012 0.157,-0.149 C 0.097,-0.105 0.052,-0.044 0,0" /></g><g
           transform="translate(451.5539,201.5979)"
           id="g24"><path
             id="path26"
             style="fill:#1c2830;fill-opacity:1;fill-rule:nonzero;stroke:none"
             d="m 0,0 56.782,-52.305 v 27.854 C 36.833,-17.213 17.828,-9.026 0,0" /></g><g
           transform="translate(969.9927,177.1473)"
           id="g28"><path
             id="path30"
             style="fill:#1c2830;fill-opacity:1;fill-rule:nonzero;stroke:none"
             d="m 0,0 v -27.855 l 48.612,44.774 8.175,7.528 C 38.963,15.428 19.958,7.238 0,0" /></g><g
           transform="translate(1050.3538,214.5146)"
           id="g32"><path
             id="path34"
             style="fill:#1c2830;fill-opacity:1;fill-rule:nonzero;stroke:none"
             d="m 0,0 -75.305,-69.369 h 216.909 l -106.182,46.59 c -0.989,0.434 -1.696,1.334 -1.889,2.391 -0.189,1.061 0.161,2.15 0.937,2.898 L 86.039,32.408 H -16.437 L 0.583,4.039 C 1.375,2.728 1.129,1.037 0,0" /></g><g
           transform="translate(930.7321,239.725)"
           id="g36"><path
             id="path38"
             style="fill:#1c2830;fill-opacity:1;fill-rule:nonzero;stroke:none"
             d="M 0,0 C -0.497,1.491 -1.68,3.856 -3.809,3.145 -7.784,1.82 -8.373,-7.288 -7.638,-14.456 -1.133,-12.207 1.61,-5.062 0,0" /></g><g
           transform="translate(830.066,216.5049)"
           id="g40"><path
             id="path42"
             style="fill:#1c2830;fill-opacity:1;fill-rule:nonzero;stroke:none"
             d="M 0,0 C -0.162,1.563 -0.804,4.128 -3.036,3.897 -7.203,3.465 -9.755,-5.298 -10.593,-12.454 -3.754,-11.67 0.473,-5.29 0,0" /></g><g
           transform="translate(696.0504,197.667)"
           id="g44"><path
             id="path46"
             style="fill:#1c2830;fill-opacity:1;fill-rule:nonzero;stroke:none"
             d="m 0,0 c -0.416,-4.469 1.966,-5.517 3.828,-5.691 1.714,-0.16 3.505,1.327 5.115,3.281 0.143,0.738 0.369,1.544 0.675,2.417 l 6.008,19.352 c -1.094,1.154 -2.482,1.584 -3.525,1.68 C 6.514,21.559 0.943,10.131 0,0" /></g><g
           transform="translate(603.7201,192.5575)"
           id="g48"><path
             id="path50"
             style="fill:#1c2830;fill-opacity:1;fill-rule:nonzero;stroke:none"
             d="m 0,0 c -0.225,-1.023 0.786,-2.7 2.393,-3.053 1.461,-0.321 3.739,0.634 5.563,4.752 L 9.779,5.818 C 4.839,5.295 0.866,3.946 0,0" /></g><g
           transform="translate(733.9094,173.9885)"
           id="g52"><path
             id="path54"
             style="fill:#1c2830;fill-opacity:1;fill-rule:nonzero;stroke:none"
             d="m 0,0 c -0.035,-1.046 1.263,-2.512 2.907,-2.567 1.495,-0.05 3.561,1.302 4.607,5.683 l 1.045,4.38 C 3.797,6.085 0.136,4.037 0,0" /></g><g
           transform="translate(570.2346,242.2173)"
           id="g56"><path
             id="path58"
             style="fill:#1c2830;fill-opacity:1;fill-rule:nonzero;stroke:none"
             d="M 0,0 C 0.459,1.502 0.867,4.115 -1.279,4.772 -5.286,5.997 -11.049,-1.082 -14.607,-7.349 -8.003,-9.289 -1.625,-5.059 0,0" /></g><g
           transform="translate(1011.4354,211.1669)"
           id="g60"><path
             id="path62"
             style="fill:#1c2830;fill-opacity:1;fill-rule:nonzero;stroke:none"
             d="m 0,0 c -58.418,-27.609 -121.261,-44.686 -192.113,-52.205 -0.108,-0.008 -0.213,-0.016 -0.317,-0.016 -1.098,0 -2.685,-0.45 -4.228,-0.888 -1.893,-0.543 -3.85,-1.101 -5.747,-1.129 -128.691,-11.08 -248.377,8.343 -346.123,56.163 -1.503,0.739 -2.126,2.556 -1.394,4.059 0.53,1.081 1.607,1.7 2.728,1.7 0.45,0 0.9,-0.093 1.335,-0.305 96.785,-47.355 215.409,-66.569 343.048,-55.561 0.088,0.008 0.177,0.008 0.265,0.008 1.089,0 2.685,0.454 4.216,0.896 1.889,0.539 3.83,1.093 5.723,1.125 70.109,7.451 132.26,24.339 190.015,51.643 C -1.077,6.205 0.731,5.562 1.447,4.043 2.162,2.528 1.515,0.719 0,0 m -528.274,46.094 c 2.713,6.65 9.694,11.881 18.781,10.193 -3.664,4.484 -4.173,9.377 -2.562,13.325 2.571,6.304 10.655,10.277 20.49,6.265 6.442,-2.628 11.699,-7.762 8.959,-14.48 -1.498,-3.672 -3.916,-5.836 -7.448,-4.395 -1.108,0.452 -2.519,1.351 -3.214,3.411 1.93,-0.221 4.659,2.705 5.365,4.437 0.452,1.108 1.952,5.182 -2.481,6.99 -5.056,2.062 -10.032,-0.432 -11.925,-5.072 -1.639,-4.017 -0.843,-9.593 4.481,-15.158 -10.266,-0.014 -15.782,-4.227 -17.732,-9.006 -2.062,-5.056 -0.086,-10.71 4.346,-12.518 5.334,-2.176 9.286,-1.203 13.657,2.185 l 0.384,-0.394 12.836,21.199 10.17,-3.55 -13.465,-22.236 c -0.557,-0.915 -0.994,-1.713 -1.266,-2.489 -0.468,-1.343 -0.153,-2.482 1.895,-3.198 6.921,-2.415 17.051,11.4 19.737,19.098 -0.472,0.006 -1.157,0.087 -1.581,0.235 -2.048,0.714 -2.276,3.012 -1.586,4.99 0.518,1.483 2.903,2.869 5.233,2.055 3.037,-1.06 3.583,-4.261 2.302,-7.934 -3.846,-11.017 -16.178,-28.419 -30.444,-23.44 -5.437,1.897 -7.918,5.458 -6.07,10.754 0.104,0.296 0.22,0.604 0.345,0.918 -7.094,-5.632 -14.837,-4.366 -20.577,-2.025 -9.558,3.899 -11.54,12.706 -8.63,19.84 m 111.727,-19.971 c -2.169,0.577 -3.536,0.089 -5.603,-0.987 l -13.535,-26.742 -10.41,2.767 4.5,8.885 c -5.676,-3.934 -12.552,-6.332 -19.515,-4.203 -6.869,2.1 -8.993,8.459 -7.112,14.613 2.778,9.086 11.518,23.86 24.54,19.879 5.867,-1.793 8.414,-5.231 6.883,-10.24 -2.668,-8.728 -13.571,-10.872 -20.631,-9.653 -0.493,-1.1 -0.893,-2.153 -1.155,-3.01 -1.443,-4.723 1.196,-7.094 3.986,-7.947 3.506,-1.071 10.784,1.241 14.907,5.77 l 0.636,-0.194 10.235,20.208 10.41,-2.767 -1.757,-3.404 c 3.141,1.332 6.456,2.154 9.492,1.347 3.253,-0.865 4.705,-3.264 3.975,-6.011 -0.673,-2.53 -3.379,-5.139 -6.921,-4.198 -4.049,1.077 -0.756,5.31 -2.925,5.887 m 10.666,-35.331 c -5.699,1.252 -8.515,4.474 -7.311,9.954 0.257,1.169 0.659,2.306 1.257,3.631 l 10.57,23.72 10.741,-2.359 -10.79,-23.672 c -0.395,-0.756 -0.718,-1.527 -0.878,-2.259 -0.354,-1.607 0.21,-2.879 3.059,-3.505 1.681,-0.37 3.942,0.512 6.195,1.703 l 11.621,25.71 10.595,-2.326 -18.222,-40.422 c -4.486,-9.968 -11.204,-10.561 -16.026,-9.502 -4.457,0.979 -7.932,5.036 -6.889,9.786 1.493,6.795 7.657,7.662 15.048,8.184 l 2.203,4.801 c -3.946,-2.274 -8.25,-4.086 -11.173,-3.444 m 53.781,-4.802 c 8.792,-1.392 17.004,15.559 19.25,29.744 1.462,9.235 0.592,14.749 -7.903,16.095 -11.969,1.894 -21.012,-3.566 -22.79,-14.795 -0.597,-3.768 0.271,-4.511 0.239,-5.188 -5.097,0.807 -7.613,3.098 -6.771,8.418 1.556,9.825 16.635,17.056 28.973,15.103 17.066,-2.702 19.769,-12.899 18.12,-23.316 -3.018,-19.061 -15.297,-34.913 -26.231,-33.182 -2.808,0.443 -5.649,2.106 -8.394,5.342 l -1.058,-2.862 -10.639,1.685 17.486,45.396 11.168,-0.253 -15.427,-40.043 c 1.24,-1.257 2.574,-1.922 3.977,-2.144 m 74.671,-13.592 c -5.266,0.178 -8.501,2.371 -8.941,6.924 -3.905,-3.055 -8.342,-5.866 -11.641,-5.558 -4.842,0.45 -7.953,2.543 -8.562,6.507 -2.518,-2.846 -6.155,-5.588 -10.699,-5.166 -7.151,0.665 -8.765,5.925 -8.357,10.319 1.193,12.813 7.239,27.729 22.137,26.343 1.788,-0.167 3.581,-1.086 4.818,-2.327 l 0.627,1.895 10.727,-0.998 -7.72,-24.828 c -0.225,-0.806 -0.45,-1.611 -0.513,-2.281 -0.152,-1.639 0.481,-2.9 3.461,-3.178 1.671,-0.155 3.745,0.975 5.809,2.369 0.097,0.703 0.238,1.433 0.435,2.237 l 6.089,25.241 10.989,-0.37 -6.312,-25.233 c -0.252,-0.814 -0.43,-1.632 -0.455,-2.38 -0.055,-1.645 0.73,-2.793 3.645,-2.892 1.72,-0.057 3.783,1.22 5.782,2.8 l 6.759,27.389 10.84,-0.365 -10.579,-43.052 c -2.602,-10.614 -9.099,-12.416 -14.033,-12.251 -4.56,0.153 -8.713,3.512 -8.55,8.37 0.234,6.953 6.138,8.924 13.31,10.779 l 1.295,5.12 c -3.467,-2.952 -7.37,-5.515 -10.361,-5.414 M -501.262,91.183 c 0.514,1.596 2.222,2.468 3.822,1.953 25.097,-8.154 51.051,-15.002 77.137,-20.359 41.149,-8.452 83.467,-13.391 125.778,-14.681 42.234,-1.278 84.81,1.061 126.533,6.965 42.057,5.956 83.604,15.577 123.487,28.61 0.31,0.1 0.627,0.149 0.945,0.149 1.274,0 2.463,-0.816 2.881,-2.09 0.522,-1.596 -0.35,-3.308 -1.941,-3.834 -40.221,-13.138 -82.117,-22.839 -124.52,-28.843 -42.069,-5.956 -84.986,-8.311 -127.57,-7.021 -42.66,1.298 -85.324,6.277 -126.811,14.801 -26.315,5.406 -52.482,12.31 -77.796,20.529 -1.592,0.518 -2.468,2.23 -1.945,3.821 M -216.384,4.272 c 7.251,0.265 9.395,-3.1 9.563,-7.661 0.223,-6.13 -3.145,-14.337 -2.973,-19.047 0.081,-2.242 1.277,-4.22 3.096,-4.827 -3.108,-1.012 -5.561,-1.475 -7.354,-1.541 -4.86,-0.178 -5.925,2.328 -6.015,4.795 -0.18,4.935 3.451,14.125 3.244,19.806 -0.109,2.991 -1.303,4.968 -4.668,4.845 -0.672,-0.025 -1.492,-0.13 -2.456,-0.389 l -4.954,-28.326 -10.765,-0.394 8.984,51.231 c -6.478,-3.007 -10.158,-8.83 -9.868,-16.755 0.139,-3.812 1.133,-4.374 1.232,-5.045 -5.159,-0.188 -8.067,1.577 -8.264,6.959 -0.363,9.943 13.045,19.94 25.53,20.395 1.046,0.039 2.021,-0.001 2.995,-0.04 l -4.098,-23.055 c 4.477,6.526 16.214,23.348 16.217,23.273 l 7.85,0.287 -19.982,-24.759 c 0.967,0.185 1.865,0.218 2.686,0.248 m 180.139,51.286 c 3.777,1.812 9.731,-0.391 11.867,-4.843 0.227,-0.472 0.486,-1.011 0.578,-1.548 l 3.418,-14.209 c 0.219,-0.974 0.367,-2.148 0.788,-3.025 0.55,-1.146 1.51,-1.763 3.534,-0.793 0.472,0.227 1.214,0.583 1.657,1.044 0.895,-6.706 -1.743,-8.471 -4.036,-9.572 -4.789,-2.298 -8.401,-0.132 -10.44,4.118 -0.518,1.079 -0.934,2.29 -1.215,3.565 l -3.264,13.371 c -0.16,0.504 -0.351,1.077 -0.61,1.616 -1.036,2.159 -2.951,3.729 -5.042,2.725 -1.619,-0.777 -2.674,-1.864 -3.537,-3.523 l 7.246,-29.965 -9.711,-4.661 -2.09,8.634 c -2.21,-5.149 -5.268,-11.123 -8.883,-12.561 -5.353,-2.128 -9.559,-1.064 -11.633,4.149 -0.23,0.578 -0.479,1.465 -0.741,2.573 -2.225,-7.041 -6.533,-13.702 -13.946,-16.174 -5.063,-1.69 -9.352,0.062 -12.059,3.575 -2.242,-4.221 -5.145,-8.996 -9.083,-9.994 -5.656,-1.434 -9.616,0.186 -10.995,5.623 -0.293,1.161 -0.442,2.358 -0.502,3.809 l -0.552,13.749 c -0.021,0.69 -0.114,1.361 -0.261,1.941 -0.661,2.61 -2.462,3.929 -4.42,3.433 -1.739,-0.442 -2.917,-1.28 -4.182,-2.681 l 1.262,-30.855 -10.44,-2.647 -0.251,6.382 c -2.418,-3.608 -5.385,-7.211 -8.922,-7.811 -5.752,-0.977 -9.571,0.954 -10.51,6.486 -0.2,1.179 -0.253,2.384 -0.196,3.836 l 0.549,13.75 c 0.035,0.689 -0.005,1.365 -0.105,1.955 -0.451,2.655 -2.14,4.113 -4.131,3.775 -1.771,-0.3 -3.01,-1.041 -4.383,-2.337 l -1.21,-30.859 -10.62,-1.803 0.456,11.182 c -3.701,-6.329 -9.321,-11.817 -17.033,-12.616 -7.143,-0.74 -11.576,4.29 -12.239,10.69 -0.978,9.449 1.32,26.459 14.862,27.862 6.102,0.633 9.787,-1.543 10.326,-6.752 0.941,-9.077 -8.267,-15.296 -15.243,-16.921 -0.026,-1.206 0.015,-2.33 0.107,-3.223 0.51,-4.911 3.864,-6.068 6.766,-5.767 3.645,0.378 9.449,5.341 11.483,11.118 l 1.155,0.119 0.917,22.509 10.619,1.803 -0.209,-4.132 c 2.648,2.726 5.741,5.071 8.985,5.623 3.982,0.676 9.207,-2.838 10.046,-7.779 0.1,-0.59 0.201,-1.179 0.153,-1.794 l -0.632,-14.6 c -0.083,-0.848 -0.093,-1.685 0.032,-2.423 0.276,-1.622 1.275,-2.59 4.151,-2.102 2.259,0.384 3.214,1.928 4.68,3.913 l -1.108,28.118 10.442,2.646 0.123,-4.135 c 2.421,2.928 5.314,5.514 8.505,6.323 3.916,0.992 9.404,-2.092 10.635,-6.95 0.147,-0.58 0.295,-1.16 0.297,-1.777 l 0.538,-14.602 c -0.016,-0.853 0.041,-1.687 0.225,-2.412 0.405,-1.596 1.477,-2.481 4.305,-1.764 2.187,0.554 3.021,2.127 4.29,4.176 -0.344,0.671 -0.643,1.379 -0.891,2.12 -3.005,9.012 -4.453,26.117 8.464,30.425 5.819,1.942 9.888,0.617 11.545,-4.35 2.889,-8.659 -4.751,-16.727 -11.208,-19.828 0.236,-1.183 0.521,-2.271 0.804,-3.122 1.563,-4.684 5.087,-5.086 7.855,-4.162 3.478,1.159 8.066,7.264 8.798,13.344 l 1.074,0.358 c -1.198,6.379 -2.478,15.122 -3.284,19.462 l -2.293,-0.911 -0.549,3.001 2.293,0.912 -1.729,10.422 9.735,5.482 c 0,0 0.836,-5.142 2.004,-11.923 l 4.171,1.659 0.549,-3.002 -4.17,-1.659 c 3.938,-23.873 4.284,-24.54 4.422,-24.888 0.636,-1.599 1.746,-2.365 4.526,-1.259 2.252,0.895 4.035,4.558 5.638,7.687 l -9.319,38.507 9.334,6.14 4.581,-18.879 c 1.794,3.35 4.119,6.459 7.087,7.883 M 27.501,14.813 -29.591,109.959 C -101.745,81.88 -185.582,67.042 -272.265,67.042 c -86.674,0 -170.511,14.838 -242.682,42.917 L -576.781,6.904 c 1.146,-0.647 2.299,-1.302 3.453,-1.953 1.41,-0.784 2.817,-1.579 4.244,-2.355 1.651,-0.904 3.327,-1.784 4.999,-2.669 1.467,-0.775 2.926,-1.555 4.408,-2.318 1.696,-0.872 3.425,-1.733 5.141,-2.589 1.487,-0.743 2.966,-1.491 4.473,-2.226 1.776,-0.86 3.585,-1.708 5.385,-2.552 1.483,-0.699 2.95,-1.402 4.449,-2.085 1.889,-0.869 3.802,-1.709 5.715,-2.556 1.442,-0.64 2.877,-1.287 4.336,-1.922 2.05,-0.88 4.127,-1.74 6.201,-2.604 1.358,-0.563 2.697,-1.141 4.063,-1.696 2.351,-0.956 4.734,-1.881 7.117,-2.809 1.122,-0.438 2.227,-0.884 3.352,-1.318 3.525,-1.346 7.081,-2.665 10.67,-3.947 68.124,-24.414 146.447,-37.327 226.51,-37.327 80.06,0 158.379,12.913 226.498,37.327 3.589,1.282 7.146,2.604 10.674,3.951 1.129,0.43 2.239,0.884 3.36,1.322 2.383,0.924 4.766,1.849 7.121,2.805 1.347,0.547 2.669,1.117 4.007,1.676 2.094,0.872 4.192,1.736 6.262,2.624 1.426,0.619 2.825,1.254 4.24,1.881 1.944,0.864 3.902,1.724 5.827,2.604 1.45,0.663 2.873,1.347 4.308,2.022 1.849,0.872 3.706,1.736 5.534,2.624 1.451,0.704 2.877,1.427 4.312,2.142 1.781,0.888 3.561,1.773 5.313,2.677 1.435,0.739 2.841,1.491 4.256,2.238 1.72,0.905 3.436,1.813 5.132,2.737 1.407,0.772 2.801,1.555 4.196,2.335 1.161,0.651 2.323,1.306 3.472,1.961 z" /></g></g></g><g
       id="g64"><g
         clip-path="url(#clipPath70)"
         id="g66"><g
           transform="translate(939.3443,500.4138)"
           id="g72"><path
             id="path74"
             style="fill:#1c2830;fill-opacity:1;fill-rule:nonzero;stroke:none"
             d="m 0,0 c -0.168,1.681 -0.292,3.37 -0.477,5.05 0,0.002 0,0.004 0,0.006 -0.003,0.031 -0.008,0.07 -0.011,0.104 -0.001,0.008 -0.002,0.017 -0.003,0.026 -0.145,1.402 -0.641,4.474 -1.215,7.825 0.093,-0.083 0.182,-0.17 0.276,-0.253 -0.673,4.163 -1.501,8.316 -2.455,12.445 -0.042,0.224 -0.066,0.354 -0.066,0.354 0,0 -0.014,0.011 -0.021,0.017 -5.372,23.017 -15.248,45.18 -31.148,62.827 -10.472,12.924 -23.218,23.868 -36.985,33.153 0.715,-7.841 0.843,-15.708 1.047,-23.575 -17.317,19.514 -36.818,37.444 -59.563,50.471 -27.062,15.427 -58.504,20.305 -89.129,22.757 -0.408,-0.791 -0.817,-1.583 -1.226,-2.375 -0.013,0.447 -0.013,1.328 -0.013,1.775 -12.094,0.907 -24.213,-1.264 -36.026,-3.678 7.445,-3.218 14.993,-6.488 21.353,-11.634 4.904,-4.291 8.352,-9.936 10.893,-15.874 -8.339,4.137 -16.653,8.339 -25.376,11.596 -21.314,8.518 -44.366,11.889 -67.213,12.477 -12.528,1.162 -25.35,2.03 -37.113,6.934 -15.261,5.428 -29.347,14.547 -39.653,27.151 -0.933,-19.067 -1.111,-38.504 3.754,-57.099 5.505,-20.088 16.59,-38.389 30.587,-53.689 -15.262,0.92 -30.829,5.045 -42.579,15.274 -1.775,-13.984 -1.187,-28.159 -0.255,-42.182 1.456,-25.197 9.553,-49.858 22.311,-71.556 -4.061,1.456 -7.803,3.666 -11.775,5.326 -0.153,-21.966 7.982,-42.681 15.031,-63.114 5.875,-0.192 11.775,-0.205 17.65,0.255 2.299,0.319 5.172,0.473 6.577,2.644 11.264,15.529 22.49,31.072 33.741,46.601 2.133,1.941 5.07,2.656 7.637,3.857 22.256,9.944 44.535,19.82 66.805,29.714 l -0.001,-10e-4 11.66,5.064 c 0.659,0.234 1.314,0.527 1.968,0.855 l 0.001,0.001 c 2.237,1.121 4.463,2.578 6.792,2.922 3.295,-15.427 13.716,-28.709 26.934,-37.035 1.786,-1.207 3.664,-2.255 5.558,-3.276 v 0 c 0,0 2.519,-1.612 6.848,-3.834 0.379,-0.236 0.76,-0.471 1.132,-0.719 0.031,0.032 0.063,0.065 0.094,0.097 0.368,-0.184 0.757,-0.373 1.146,-0.563 -0.051,-0.053 -0.104,-0.106 -0.155,-0.16 1.992,-0.849 3.989,-1.684 5.991,-2.51 1.367,-0.585 2.806,-1.175 4.314,-1.758 0.065,-0.026 0.126,-0.042 0.191,-0.066 13.895,-5.579 28.039,-10.54 42.504,-14.465 -8.623,13.987 -17.765,28.118 -22.769,43.873 -0.057,0.334 -1.474,8.648 -1.636,12.658 -0.002,0.202 -0.012,0.404 -0.013,0.606 -0.001,0.086 -0.003,0.178 -0.001,0.258 -0.001,2.292 0.1,4.584 0.358,6.869 3.41,-0.869 6.603,-2.35 9.642,-4.112 0.12,0.087 0.231,0.185 0.35,0.274 l 1.793,-0.748 c -0.042,-0.042 -0.084,-0.084 -0.125,-0.127 17.292,-6.819 34.315,-14.303 51.569,-21.238 12.069,-5.402 24.661,-9.859 36.551,-15.542 8.186,-14.099 15.389,-28.786 23.281,-43.076 1.456,-2.21 1.928,-5.837 5.057,-6.233 6.628,-1.545 13.512,-1.009 20.268,-1.264 5.721,13.729 11.047,27.777 13.269,42.553 2.516,10.791 2.056,21.928 2.605,32.911 C 7.241,3.487 3.55,1.877 0,0" /></g><g
           transform="translate(888.3666,387.1026)"
           id="g76"><path
             id="path78"
             style="fill:#1c2830;fill-opacity:1;fill-rule:nonzero;stroke:none"
             d="m 0,0 v -11.144 c -0.111,0.004 -0.126,-1.922 0,-2.899 v -7.306 c -0.052,0.001 0.226,-9.409 -0.17,-14.096 -1.443,-6.526 -6.347,-11.557 -11.749,-15.197 -4.449,-1.052 -8.892,-2.317 -13.436,-2.704 h -7.833 l 0.005,0.06 c -1.095,0.035 -36.895,0.09 -46.741,-0.051 -3.474,-0.102 -6.795,0.996 -10.179,1.545 -1.366,0.435 -2.746,0.818 -4.125,1.15 -5.147,3.09 -8.837,7.675 -11.596,12.911 -0.562,17.573 -0.562,35.184 -0.013,52.757 2.746,6.411 7.752,11.737 14.419,14.099 1.749,0.37 3.473,0.881 5.134,1.558 21.302,-0.115 42.603,-0.038 63.918,-0.025 3.193,0.089 6.181,-1.226 9.17,-2.222 2.899,-0.805 4.572,-3.704 7.483,-4.547 1.916,-3.282 4.24,-6.424 5.403,-10.102 C 0.366,9.228 -0.052,-0.002 0,0 m -173.702,-32.316 c -0.319,-9.067 -7.407,-17.177 -16.129,-19.258 -4.113,-1.086 -8.391,-0.716 -12.592,-0.767 -9.677,-0.022 -19.362,0.021 -29.041,-0.007 0,10e-4 0.001,0.012 0.001,0.012 l -26.908,0.044 c -4.415,0.289 -8.758,1.296 -12.275,4.153 -5.862,4.112 -9.399,11.238 -9.067,18.39 0.076,12.72 0.076,25.44 0.064,38.16 -0.307,11.621 10.625,22.081 22.208,21.404 20.985,-0.038 41.982,-0.014 62.967,-0.013 2.05,-0.14 4.85,-0.568 7.776,-1.738 4.485,-2.031 8.374,-5.356 10.71,-9.743 2.772,-4.917 2.389,-10.779 2.44,-16.232 -0.115,-11.468 0.178,-22.937 -0.154,-34.405 m 191.91,73.65 c -1.086,0.639 -2.172,1.265 -3.244,1.878 -2.759,0.651 -5.045,2.822 -7.931,2.822 -38.543,0.013 -77.086,-0.013 -115.628,-0.013 -2.146,-1.609 -4.33,-3.167 -6.552,-4.687 -4.623,-2.439 -9.348,-4.738 -14.329,-6.373 -6.015,-0.446 -12.068,-0.293 -18.083,0.192 -8.161,1.06 -15.453,5.415 -22.081,10.051 -0.984,0.804 -2.108,1.124 -3.359,0.97 -37.93,-0.025 -75.847,-0.038 -113.777,0 -2.745,0.141 -4.98,-1.749 -7.445,-2.669 -9.655,-4.789 -20.715,-4.993 -31.251,-4.853 0.051,-2.911 0.077,-5.823 0.103,-8.735 5.44,-4.074 9.207,-10.204 9.948,-16.998 4.649,0.089 9.297,0.064 13.946,0.051 0.013,-14.508 -0.179,-29.016 0.128,-43.523 1.034,-9.911 3.192,-20.357 10.127,-27.943 4.889,-4.687 11.492,-7.826 18.291,-8.179 l -0.002,-0.004 0.159,-0.003 c 0.457,-0.021 0.915,-0.03 1.374,-0.025 l 30.4,-0.55 -1.108,0.257 c 13.639,0.078 27.237,0.007 40.896,0.126 11.775,-0.243 24.609,-1.762 35.197,4.508 9.054,4.84 13.92,14.891 14.993,24.776 1.111,12.4 -0.192,24.903 0.689,37.316 2.337,6.692 11.341,7.944 17.19,5.415 1.341,-1.277 2.695,-2.567 4.048,-3.856 0.371,-11.264 0.115,-22.541 0.192,-33.805 0.69,-6.807 1.596,-13.78 5.147,-19.782 0.906,-1.15 1.813,-2.325 2.681,-3.525 4.368,-5.683 11.379,-8.608 18.097,-10.447 14.201,-0.421 28.415,0.077 42.617,-0.255 0,0.028 0,0.056 0.001,0.085 h 5.008 c 0.629,-0.021 1.254,-0.037 1.887,-0.06 -10e-4,0.02 -0.002,0.04 -0.004,0.06 h 7.344 c -0.003,-0.08 -0.007,-0.159 -0.01,-0.239 0.894,0.106 1.793,0.171 2.692,0.239 h 15.131 c 0.963,0 1.926,-0.006 2.89,0 h 0.178 v 0.001 c 3.503,0.022 7.008,0.062 10.513,0.016 5.083,0.14 10.421,-0.728 15.172,1.532 10.766,3.168 18.275,13.959 19.029,24.878 1.609,3.499 1.405,7.586 2.081,11.341 0.064,13.856 0.154,27.726 -0.051,41.582 0,0 12.528,0.305 14.317,1.264 0,0 2.936,8.146 2.516,10.409 0,0 2.169,-0.192 2.477,-0.217 l -0.115,2.235 c 1.788,0.906 3.346,2.171 4.853,3.473 0.051,2.81 0.102,5.619 0.192,8.429 -9.259,-0.255 -18.62,0.192 -27.534,2.835" /></g><g
           transform="translate(662.6489,374.8498)"
           id="g80"><path
             id="path82"
             style="fill:#1c2830;fill-opacity:1;fill-rule:nonzero;stroke:none"
             d="m 0,0 c -3.882,3.793 -4.023,9.795 -1.328,14.291 -7.573,1.8 -16.436,-1.98 -19.259,-9.464 -4.201,-8.326 0.664,-19.59 9.617,-22.183 9.936,-3.971 21.595,4.572 21.595,15.108 C 7.037,-2.452 2.618,-3.078 0,0" /></g><g
           transform="translate(846.5634,374.9137)"
           id="g84"><path
             id="path86"
             style="fill:#1c2830;fill-opacity:1;fill-rule:nonzero;stroke:none"
             d="M 0,0 C -3.831,3.601 -3.346,9.629 -1.482,14.086 -11.545,17.1 -22.771,8.237 -21.94,-2.26 -22.413,-13.218 -9.489,-21.813 0.409,-17.062 6.654,-14.929 10.242,-8.518 11.098,-2.273 7.369,-2.516 2.771,-3.142 0,0" /></g><g
           transform="translate(742.8581,136.8274)"
           id="g88"><path
             id="path90"
             style="fill:#1c2830;fill-opacity:1;fill-rule:nonzero;stroke:none"
             d="m 0,0 c -181.551,0 -328.726,147.176 -328.726,328.726 0,181.551 147.175,328.727 328.726,328.727 181.551,0 328.726,-147.176 328.726,-328.727 C 328.726,147.176 181.551,0 0,0 m 0,675.2 c -191.352,0 -346.473,-155.122 -346.473,-346.474 0,-191.352 155.121,-346.473 346.473,-346.473 191.352,0 346.473,155.121 346.473,346.473 C 346.473,520.078 191.352,675.2 0,675.2" /></g><g
           transform="translate(742.8582,151.9994)"
           id="g92"><path
             id="path94"
             style="fill:#1c2830;fill-opacity:1;fill-rule:nonzero;stroke:none"
             d="m 0,0 c -173.171,0 -313.554,140.383 -313.554,313.554 0,173.172 140.383,313.555 313.554,313.555 173.171,0 313.554,-140.383 313.554,-313.555 C 313.554,140.383 173.171,0 0,0 m 0,633.023 c -176.438,0 -319.469,-143.031 -319.469,-319.469 0,-176.437 143.031,-319.469 319.469,-319.469 176.438,0 319.469,143.032 319.469,319.469 0,176.438 -143.031,319.469 -319.469,319.469" /></g></g></g></g></svg>